ffmpeg version 4.3.1-2020-11-19-essentials_build-www.gyan.dev Copyright (c) 2000-2020 the FFmpeg developers
  built with gcc 10.2.0 (Rev5, Built by MSYS2 project)
  configuration: --enable-gpl --enable-version3 --enable-static --disable-w32threads --disable-autodetect --enable-fontconfig --enable-iconv --enable-gnutls --enable-libxml2 --enable-gmp --enable-lzma --enable-zlib --enable-libsrt --enable-libssh --enable-libzmq --enable-avisynth --enable-sdl2 --enable-libwebp --enable-libx264 --enable-libx265 --enable-libxvid --enable-libaom --enable-libopenjpeg --enable-libvpx --enable-libass --enable-libfreetype --enable-libfribidi --enable-libvidstab --enable-libvmaf --enable-libzimg --enable-amf --enable-cuda-llvm --enable-cuvid --enable-ffnvcodec --enable-nvdec --enable-nvenc --enable-d3d11va --enable-dxva2 --enable-libmfx --enable-libgme --enable-libopenmpt --enable-libopencore-amrwb --enable-libmp3lame --enable-libtheora --enable-libvo-amrwbenc --enable-libgsm --enable-libopencore-amrnb --enable-libopus --enable-libspeex --enable-libvorbis --enable-librubberband
  libavutil      56. 51.100 / 56. 51.100
  libavcodec     58. 91.100 / 58. 91.100
  libavformat    58. 45.100 / 58. 45.100
  libavdevice    58. 10.100 / 58. 10.100
  libavfilter     7. 85.100 /  7. 85.100
  libswscale      5.  7.100 /  5.  7.100
  libswresample   3.  7.100 /  3.  7.100
  libpostproc    55.  7.100 / 55.  7.100
Splitting the commandline.
Reading option '-v' ... matched as option 'v' (set logging level) with argument 'debug'.
Reading option '-nostdin' ... matched as option 'stdin' (enable or disable interaction on standard input) with argument 0.
Reading option '-progress' ... matched as option 'progress' (write program-readable progress information) with argument 'C:/Users/Usuario/AppData/Local/Temp/KritaFFmpegProgress.EuFGPI'.
Reading option '-r' ... matched as option 'r' (set frame rate (Hz value, fraction or abbreviation)) with argument '24'.
Reading option '-start_number' ... matched as AVOption 'start_number' with argument '0'.
Reading option '-i' ... matched as input url with argument 'C:/Users/Usuario/Desktop/DISEÑO/00_PORTFOLIO/PORTFOLIO WEB/HTML_PORTFOLIO/images/art/frame%04d.png'.
Reading option '-i' ... matched as input url with argument 'C:/Users/Usuario/Desktop/DISEÑO/00_PORTFOLIO/PORTFOLIO WEB/HTML_PORTFOLIO/images/art/palette.png'.
Reading option '-lavfi' ... matched as option 'lavfi' (create a complex filtergraph) with argument 'scale=w=1430:h=1080[0:v];[0:v][1:v] paletteuse'.
Reading option '-y' ... matched as option 'y' (overwrite output files) with argument '1'.
Reading option 'C:/Users/Usuario/Desktop/DISEÑO/00_PORTFOLIO/PORTFOLIO WEB/HTML_PORTFOLIO/images/art\uuuuuuuuuuuuuuuu.gif' ... matched as output url.
Finished splitting the commandline.
Parsing a group of options: global .
Applying option v (set logging level) with argument debug.
Applying option nostdin (enable or disable interaction on standard input) with argument 0.
Applying option progress (write program-readable progress information) with argument C:/Users/Usuario/AppData/Local/Temp/KritaFFmpegProgress.EuFGPI.
[file @ 0000019e3dbbe2c0] Setting default whitelist 'file,crypto,data'
Applying option lavfi (create a complex filtergraph) with argument scale=w=1430:h=1080[0:v];[0:v][1:v] paletteuse.
Applying option y (overwrite output files) with argument 1.
Successfully parsed a group of options.
Parsing a group of options: input url C:/Users/Usuario/Desktop/DISEÑO/00_PORTFOLIO/PORTFOLIO WEB/HTML_PORTFOLIO/images/art/frame%04d.png.
Applying option r (set frame rate (Hz value, fraction or abbreviation)) with argument 24.
Successfully parsed a group of options.
Opening an input file: C:/Users/Usuario/Desktop/DISEÑO/00_PORTFOLIO/PORTFOLIO WEB/HTML_PORTFOLIO/images/art/frame%04d.png.
[image2 @ 0000019e3dbfe6c0] Opening 'C:/Users/Usuario/Desktop/DISEÑO/00_PORTFOLIO/PORTFOLIO WEB/HTML_PORTFOLIO/images/art/frame0000.png' for reading
[file @ 0000019e3dc03d40] Setting default whitelist 'file,crypto,data'
[AVIOContext @ 0000019e3dc0bf40] Statistics: 238985 bytes read, 0 seeks
[image2 @ 0000019e3dbfe6c0] Opening 'C:/Users/Usuario/Desktop/DISEÑO/00_PORTFOLIO/PORTFOLIO WEB/HTML_PORTFOLIO/images/art/frame0001.png' for reading
[file @ 0000019e3dc0aac0] Setting default whitelist 'file,crypto,data'
[AVIOContext @ 0000019e3dc0ac80] Statistics: 238985 bytes read, 0 seeks
[image2 @ 0000019e3dbfe6c0] Opening 'C:/Users/Usuario/Desktop/DISEÑO/00_PORTFOLIO/PORTFOLIO WEB/HTML_PORTFOLIO/images/art/frame0002.png' for reading
[file @ 0000019e3dc0ab80] Setting default whitelist 'file,crypto,data'
[AVIOContext @ 0000019e3dc0aec0] Statistics: 241861 bytes read, 0 seeks
[image2 @ 0000019e3dbfe6c0] Opening 'C:/Users/Usuario/Desktop/DISEÑO/00_PORTFOLIO/PORTFOLIO WEB/HTML_PORTFOLIO/images/art/frame0003.png' for reading
[file @ 0000019e3dc0ab80] Setting default whitelist 'file,crypto,data'
[AVIOContext @ 0000019e3dc0b080] Statistics: 241861 bytes read, 0 seeks
[image2 @ 0000019e3dbfe6c0] Opening 'C:/Users/Usuario/Desktop/DISEÑO/00_PORTFOLIO/PORTFOLIO WEB/HTML_PORTFOLIO/images/art/frame0004.png' for reading
[file @ 0000019e3dc0ab80] Setting default whitelist 'file,crypto,data'
[AVIOContext @ 0000019e3dc0b240] Statistics: 240840 bytes read, 0 seeks
[image2 @ 0000019e3dbfe6c0] Opening 'C:/Users/Usuario/Desktop/DISEÑO/00_PORTFOLIO/PORTFOLIO WEB/HTML_PORTFOLIO/images/art/frame0005.png' for reading
[file @ 0000019e3dc0ab80] Setting default whitelist 'file,crypto,data'
[AVIOContext @ 0000019e3dc0b400] Statistics: 237595 bytes read, 0 seeks
[image2 @ 0000019e3dbfe6c0] Opening 'C:/Users/Usuario/Desktop/DISEÑO/00_PORTFOLIO/PORTFOLIO WEB/HTML_PORTFOLIO/images/art/frame0006.png' for reading
[file @ 0000019e3dc0ab80] Setting default whitelist 'file,crypto,data'
[AVIOContext @ 0000019e3dc0b5c0] Statistics: 245802 bytes read, 0 seeks
[image2 @ 0000019e3dbfe6c0] Opening 'C:/Users/Usuario/Desktop/DISEÑO/00_PORTFOLIO/PORTFOLIO WEB/HTML_PORTFOLIO/images/art/frame0007.png' for reading
[file @ 0000019e3dc0ab80] Setting default whitelist 'file,crypto,data'
[AVIOContext @ 0000019e3dc04e00] Statistics: 245802 bytes read, 0 seeks
[image2 @ 0000019e3dbfe6c0] Opening 'C:/Users/Usuario/Desktop/DISEÑO/00_PORTFOLIO/PORTFOLIO WEB/HTML_PORTFOLIO/images/art/frame0008.png' for reading
[file @ 0000019e3dc0ab80] Setting default whitelist 'file,crypto,data'
[AVIOContext @ 0000019e3dc04e00] Statistics: 248773 bytes read, 0 seeks
[image2 @ 0000019e3dbfe6c0] Opening 'C:/Users/Usuario/Desktop/DISEÑO/00_PORTFOLIO/PORTFOLIO WEB/HTML_PORTFOLIO/images/art/frame0009.png' for reading
[file @ 0000019e3dc04e00] Setting default whitelist 'file,crypto,data'
[AVIOContext @ 0000019e3dc04f00] Statistics: 254560 bytes read, 0 seeks
[image2 @ 0000019e3dbfe6c0] Opening 'C:/Users/Usuario/Desktop/DISEÑO/00_PORTFOLIO/PORTFOLIO WEB/HTML_PORTFOLIO/images/art/frame0010.png' for reading
[file @ 0000019e3dc04e00] Setting default whitelist 'file,crypto,data'
[AVIOContext @ 0000019e3dc04f00] Statistics: 245511 bytes read, 0 seeks
[image2 @ 0000019e3dbfe6c0] Opening 'C:/Users/Usuario/Desktop/DISEÑO/00_PORTFOLIO/PORTFOLIO WEB/HTML_PORTFOLIO/images/art/frame0011.png' for reading
[file @ 0000019e3dc04ec0] Setting default whitelist 'file,crypto,data'
[AVIOContext @ 0000019e3dc04fc0] Statistics: 260904 bytes read, 0 seeks
[image2 @ 0000019e3dbfe6c0] Opening 'C:/Users/Usuario/Desktop/DISEÑO/00_PORTFOLIO/PORTFOLIO WEB/HTML_PORTFOLIO/images/art/frame0012.png' for reading
[file @ 0000019e3dc04f40] Setting default whitelist 'file,crypto,data'
[AVIOContext @ 0000019e3dc05080] Statistics: 261028 bytes read, 0 seeks
[image2 @ 0000019e3dbfe6c0] Opening 'C:/Users/Usuario/Desktop/DISEÑO/00_PORTFOLIO/PORTFOLIO WEB/HTML_PORTFOLIO/images/art/frame0013.png' for reading
[file @ 0000019e3dc04f40] Setting default whitelist 'file,crypto,data'
[AVIOContext @ 0000019e3dc05080] Statistics: 261672 bytes read, 0 seeks
[image2 @ 0000019e3dbfe6c0] Opening 'C:/Users/Usuario/Desktop/DISEÑO/00_PORTFOLIO/PORTFOLIO WEB/HTML_PORTFOLIO/images/art/frame0014.png' for reading
[file @ 0000019e3dc04f40] Setting default whitelist 'file,crypto,data'
[AVIOContext @ 0000019e3dc05080] Statistics: 261672 bytes read, 0 seeks
[image2 @ 0000019e3dbfe6c0] Opening 'C:/Users/Usuario/Desktop/DISEÑO/00_PORTFOLIO/PORTFOLIO WEB/HTML_PORTFOLIO/images/art/frame0015.png' for reading
[file @ 0000019e3dc04f40] Setting default whitelist 'file,crypto,data'
[AVIOContext @ 0000019e3dc05080] Statistics: 260383 bytes read, 0 seeks
[image2 @ 0000019e3dbfe6c0] Opening 'C:/Users/Usuario/Desktop/DISEÑO/00_PORTFOLIO/PORTFOLIO WEB/HTML_PORTFOLIO/images/art/frame0016.png' for reading
[file @ 0000019e3dc04f40] Setting default whitelist 'file,crypto,data'
[AVIOContext @ 0000019e3dc05080] Statistics: 276496 bytes read, 0 seeks
[image2 @ 0000019e3dbfe6c0] Opening 'C:/Users/Usuario/Desktop/DISEÑO/00_PORTFOLIO/PORTFOLIO WEB/HTML_PORTFOLIO/images/art/frame0017.png' for reading
[file @ 0000019e3dc04f40] Setting default whitelist 'file,crypto,data'
[AVIOContext @ 0000019e3dc05080] Statistics: 276496 bytes read, 0 seeks
[image2 @ 0000019e3dbfe6c0] Opening 'C:/Users/Usuario/Desktop/DISEÑO/00_PORTFOLIO/PORTFOLIO WEB/HTML_PORTFOLIO/images/art/frame0018.png' for reading
[file @ 0000019e3dc04f40] Setting default whitelist 'file,crypto,data'
[AVIOContext @ 0000019e3dc05080] Statistics: 264431 bytes read, 0 seeks
[image2 @ 0000019e3dbfe6c0] Opening 'C:/Users/Usuario/Desktop/DISEÑO/00_PORTFOLIO/PORTFOLIO WEB/HTML_PORTFOLIO/images/art/frame0019.png' for reading
[file @ 0000019e3dc04f40] Setting default whitelist 'file,crypto,data'
[AVIOContext @ 0000019e3dc05080] Statistics: 264431 bytes read, 0 seeks
[image2 @ 0000019e3dbfe6c0] Probe buffer size limit of 5000000 bytes reached
Input #0, image2, from 'C:/Users/Usuario/Desktop/DISEÑO/00_PORTFOLIO/PORTFOLIO WEB/HTML_PORTFOLIO/images/art/frame%04d.png':
  Duration: 00:00:01.12, start: 0.000000, bitrate: N/A
    Stream #0:0, 20, 1/25: Video: png, 1 reference frame, rgba(pc), 1429x1080 [SAR 3937:3937 DAR 1429:1080], 0/1, 25 fps, 25 tbr, 25 tbn, 25 tbc
Successfully opened the file.
Parsing a group of options: input url C:/Users/Usuario/Desktop/DISEÑO/00_PORTFOLIO/PORTFOLIO WEB/HTML_PORTFOLIO/images/art/palette.png.
Successfully parsed a group of options.
Opening an input file: C:/Users/Usuario/Desktop/DISEÑO/00_PORTFOLIO/PORTFOLIO WEB/HTML_PORTFOLIO/images/art/palette.png.
[NULL @ 0000019e3dc03000] Opening 'C:/Users/Usuario/Desktop/DISEÑO/00_PORTFOLIO/PORTFOLIO WEB/HTML_PORTFOLIO/images/art/palette.png' for reading
[file @ 0000019e3dc03700] Setting default whitelist 'file,crypto,data'
[png_pipe @ 0000019e3dc03000] Format png_pipe probed with size=2048 and score=99
[png_pipe @ 0000019e3dc03000] Before avformat_find_stream_info() pos: 0 bytes read:1007 seeks:0 nb_streams:1
[png_pipe @ 0000019e3dc03000] After avformat_find_stream_info() pos: 1007 bytes read:1007 seeks:0 frames:1
Input #1, png_pipe, from 'C:/Users/Usuario/Desktop/DISEÑO/00_PORTFOLIO/PORTFOLIO WEB/HTML_PORTFOLIO/images/art/palette.png':
  Duration: N/A, bitrate: N/A
    Stream #1:0, 1, 1/25: Video: png, 1 reference frame, rgba(pc), 16x16 [SAR 1:1 DAR 1:1], 0/1, 25 tbr, 25 tbn, 25 tbc
Successfully opened the file.
[Parsed_scale_0 @ 0000019e3eb741c0] Setting 'w' to value '1430'
[Parsed_scale_0 @ 0000019e3eb741c0] Setting 'h' to value '1080'
[Parsed_scale_0 @ 0000019e3eb741c0] w:1430 h:1080 flags:'bilinear' interl:0
Parsing a group of options: output url C:/Users/Usuario/Desktop/DISEÑO/00_PORTFOLIO/PORTFOLIO WEB/HTML_PORTFOLIO/images/art\uuuuuuuuuuuuuuuu.gif.
Successfully parsed a group of options.
Opening an output file: C:/Users/Usuario/Desktop/DISEÑO/00_PORTFOLIO/PORTFOLIO WEB/HTML_PORTFOLIO/images/art\uuuuuuuuuuuuuuuu.gif.
[file @ 0000019e3eb74c80] Setting default whitelist 'file,crypto,data'
Successfully opened the file.
detected 12 logical cores
Stream mapping:
  Stream #0:0 (png) -> scale
  Stream #1:0 (png) -> paletteuse:palette
  paletteuse -> Stream #0:0 (gif)
cur_dts is invalid st:0 (0) [init:0 i_done:0 finish:0] (this is harmless if it occurs once at the start per stream)
    Last message repeated 5 times
[image2 @ 0000019e3dbfe6c0] Thread message queue blocking; consider raising the thread_queue_size option (current value: 8)
cur_dts is invalid st:0 (0) [init:0 i_done:0 finish:0] (this is harmless if it occurs once at the start per stream)
    Last message repeated 9 times
[image2 @ 0000019e3dbfe6c0] Opening 'C:/Users/Usuario/Desktop/DISEÑO/00_PORTFOLIO/PORTFOLIO WEB/HTML_PORTFOLIO/images/art/frame0020.png' for reading
[file @ 0000019e3dc0ae40] Setting default whitelist 'file,crypto,data'
[AVIOContext @ 0000019e3dc04e00] Statistics: 264431 bytes read, 0 seeks
cur_dts is invalid st:0 (0) [init:0 i_done:0 finish:0] (this is harmless if it occurs once at the start per stream)
[image2 @ 0000019e3dbfe6c0] Opening 'C:/Users/Usuario/Desktop/DISEÑO/00_PORTFOLIO/PORTFOLIO WEB/HTML_PORTFOLIO/images/art/frame0021.png' for reading
[file @ 0000019e3dc0ae40] Setting default whitelist 'file,crypto,data'
[AVIOContext @ 0000019e3dc04e00] Statistics: 255823 bytes read, 0 seeks
cur_dts is invalid st:0 (0) [init:0 i_done:0 finish:0] (this is harmless if it occurs once at the start per stream)
    Last message repeated 1 times
[Parsed_scale_0 @ 0000019e3dc0ae40] Setting 'w' to value '1430'
[Parsed_scale_0 @ 0000019e3dc0ae40] Setting 'h' to value '1080'
[Parsed_scale_0 @ 0000019e3dc0ae40] w:1430 h:1080 flags:'bilinear' interl:0
[graph 0 input from stream 0:0 @ 0000019e3dc0b340] Setting 'video_size' to value '1429x1080'
[graph 0 input from stream 0:0 @ 0000019e3dc0b340] Setting 'pix_fmt' to value '26'
[graph 0 input from stream 0:0 @ 0000019e3dc0b340] Setting 'time_base' to value '1/24'
[graph 0 input from stream 0:0 @ 0000019e3dc0b340] Setting 'pixel_aspect' to value '3937/3937'
[graph 0 input from stream 0:0 @ 0000019e3dc0b340] Setting 'frame_rate' to value '24/1'
[graph 0 input from stream 0:0 @ 0000019e3dc0b340] w:1429 h:1080 pixfmt:rgba tb:1/24 fr:24/1 sar:3937/3937
[graph 0 input from stream 1:0 @ 0000019e3dc4e980] Setting 'video_size' to value '16x16'
[graph 0 input from stream 1:0 @ 0000019e3dc4e980] Setting 'pix_fmt' to value '26'
[graph 0 input from stream 1:0 @ 0000019e3dc4e980] Setting 'time_base' to value '1/25'
[graph 0 input from stream 1:0 @ 0000019e3dc4e980] Setting 'pixel_aspect' to value '1/1'
[graph 0 input from stream 1:0 @ 0000019e3dc4e980] Setting 'frame_rate' to value '25/1'
[graph 0 input from stream 1:0 @ 0000019e3dc4e980] w:16 h:16 pixfmt:rgba tb:1/25 fr:25/1 sar:1/1
[format @ 0000019e3dc0afc0] Setting 'pix_fmts' to value 'rgb8|bgr8|rgb4_byte|bgr4_byte|gray|pal8'
[auto_scaler_0 @ 0000019e3dc78a00] w:iw h:ih flags:'bilinear' interl:0
[Parsed_paletteuse_1 @ 0000019e3dc0b500] auto-inserting filter 'auto_scaler_0' between the filter 'graph 0 input from stream 1:0' and the filter 'Parsed_paletteuse_1'
[AVFilterGraph @ 0000019e3e9aa540] query_formats: 6 queried, 4 merged, 1 already done, 0 delayed
[swscaler @ 0000019e42f84000] Forcing full internal H chroma due to input having non subsampled chroma
[Parsed_scale_0 @ 0000019e3dc0ae40] w:1429 h:1080 fmt:rgba sar:3937/3937 -> w:1430 h:1080 fmt:bgra sar:1429/1430 flags:0x2
[swscaler @ 0000019e42fd1700] Forcing full internal H chroma due to input having non subsampled chroma
[auto_scaler_0 @ 0000019e3dc78a00] w:16 h:16 fmt:rgba sar:1/1 -> w:16 h:16 fmt:bgra sar:1/1 flags:0x2
[Parsed_paletteuse_1 @ 0000019e3dc0b500] [framesync @ 0000019e42efdfc8] Selected 1/600 time base
[Parsed_paletteuse_1 @ 0000019e3dc0b500] [framesync @ 0000019e42efdfc8] Sync level 2
Output #0, gif, to 'C:/Users/Usuario/Desktop/DISEÑO/00_PORTFOLIO/PORTFOLIO WEB/HTML_PORTFOLIO/images/art\uuuuuuuuuuuuuuuu.gif':
  Metadata:
    encoder         : Lavf58.45.100
    Stream #0:0, 0, 1/100: Video: gif, 1 reference frame, pal8, 1430x1080 [SAR 1429:1430 DAR 1429:1080], 0/1, q=2-31, 200 kb/s, 24 fps, 100 tbn, 24 tbc (default)
    Metadata:
      encoder         : Lavc58.91.100 gif
Clipping frame in rate conversion by 0.000008
[image2 @ 0000019e3dbfe6c0] Opening 'C:/Users/Usuario/Desktop/DISEÑO/00_PORTFOLIO/PORTFOLIO WEB/HTML_PORTFOLIO/images/art/frame0022.png' for reading
[file @ 0000019e42f83dc0] Setting default whitelist 'file,crypto,data'
[AVIOContext @ 0000019e3dc04e00] Statistics: 255823 bytes read, 0 seeks
[gif @ 0000019e3dc06100] 1x1 image at pos (1429;1079) [area:1430x1080]
[image2 @ 0000019e3dbfe6c0] Opening 'C:/Users/Usuario/Desktop/DISEÑO/00_PORTFOLIO/PORTFOLIO WEB/HTML_PORTFOLIO/images/art/frame0023.png' for reading
[file @ 0000019e42f83800] Setting default whitelist 'file,crypto,data'
[AVIOContext @ 0000019e3dc04e00] Statistics: 241975 bytes read, 0 seeks
[gif @ 0000019e3dc06100] 932x661 image at pos (123;314) [area:1430x1080]
[image2 @ 0000019e3dbfe6c0] Opening 'C:/Users/Usuario/Desktop/DISEÑO/00_PORTFOLIO/PORTFOLIO WEB/HTML_PORTFOLIO/images/art/frame0024.png' for reading
[file @ 0000019e42f83a40] Setting default whitelist 'file,crypto,data'
[AVIOContext @ 0000019e3dc0acc0] Statistics: 241975 bytes read, 0 seeks
[gif @ 0000019e3dc06100] 1x1 image at pos (1429;1079) [area:1430x1080]
[image2 @ 0000019e3dbfe6c0] Opening 'C:/Users/Usuario/Desktop/DISEÑO/00_PORTFOLIO/PORTFOLIO WEB/HTML_PORTFOLIO/images/art/frame0025.png' for reading
[file @ 0000019e42f83380] Setting default whitelist 'file,crypto,data'
[AVIOContext @ 0000019e3dc0acc0] Statistics: 241975 bytes read, 0 seeks
[gif @ 0000019e3dc06100] 861x933 image at pos (232;47) [area:1430x1080]
[image2 @ 0000019e3dbfe6c0] Opening 'C:/Users/Usuario/Desktop/DISEÑO/00_PORTFOLIO/PORTFOLIO WEB/HTML_PORTFOLIO/images/art/frame0026.png' for reading
[file @ 0000019e42f83040] Setting default whitelist 'file,crypto,data'
[AVIOContext @ 0000019e3dc0acc0] Statistics: 237995 bytes read, 0 seeks
[gif @ 0000019e3dc06100] 546x634 image at pos (629;359) [area:1430x1080]
[image2 @ 0000019e3dbfe6c0] Opening 'C:/Users/Usuario/Desktop/DISEÑO/00_PORTFOLIO/PORTFOLIO WEB/HTML_PORTFOLIO/images/art/frame0027.png' for reading
[file @ 0000019e42f835c0] Setting default whitelist 'file,crypto,data'
[AVIOContext @ 0000019e3dc0acc0] Statistics: 237995 bytes read, 0 seeks
[gif @ 0000019e3dc06100] 1034x688 image at pos (268;333) [area:1430x1080]
[gif @ 0000019e3dc06100] 1x1 image at pos (1429;1079) [area:1430x1080]
[gif @ 0000019e3dc06100] 1098x754 image at pos (298;294) [area:1430x1080]
[gif @ 0000019e3dc06100] 772x663 image at pos (624;294) [area:1430x1080]
[gif @ 0000019e3dc06100] 708x682 image at pos (679;326) [area:1430x1080]
frame=   11 fps=0.0 q=-0.0 size=     176kB time=00:00:00.43 bitrate=3360.0kbits/s speed=0.858x    [gif @ 0000019e3dc06100] 1173x741 image at pos (247;307) [area:1430x1080]
[gif @ 0000019e3dc06100] 25x145 image at pos (270;501) [area:1430x1080]
[gif @ 0000019e3dc06100] 89x264 image at pos (247;490) [area:1430x1080]
[gif @ 0000019e3dc06100] 1x1 image at pos (1429;1079) [area:1430x1080]
[gif @ 0000019e3dc06100] 1339x676 image at pos (81;371) [area:1430x1080]
[gif @ 0000019e3dc06100] 1377x697 image at pos (0;374) [area:1430x1080]
[gif @ 0000019e3dc06100] 1x1 image at pos (1429;1079) [area:1430x1080]
[gif @ 0000019e3dc06100] 1418x722 image at pos (0;358) [area:1430x1080]
[gif @ 0000019e3dc06100] 1x1 image at pos (1429;1079) [area:1430x1080]
    Last message repeated 1 times
[gif @ 0000019e3dc06100] 1418x778 image at pos (0;302) [area:1430x1080]
[gif @ 0000019e3dc06100] 1x1 image at pos (1429;1079) [area:1430x1080]
frame=   23 fps= 22 q=-0.0 size=     256kB time=00:00:00.93 bitrate=2255.0kbits/s speed=0.894x    [gif @ 0000019e3dc06100] 1265x697 image at pos (0;307) [area:1430x1080]
[gif @ 0000019e3dc06100] 1x1 image at pos (1429;1079) [area:1430x1080]
    Last message repeated 1 times
[gif @ 0000019e3dc06100] 757x690 image at pos (0;303) [area:1430x1080]
[gif @ 0000019e3dc06100] 1x1 image at pos (1429;1079) [area:1430x1080]
[Parsed_paletteuse_1 @ 0000019e3dc0b500] [framesync @ 0000019e42efdfc8] Sync level 0
[out_0_0 @ 0000019e3dc0b180] EOF on sink link out_0_0:default.
No more output streams to write to, finishing.
frame=   28 fps= 22 q=-0.0 Lsize=     341kB time=00:00:01.14 bitrate=2453.8kbits/s speed=0.88x    
[AVIOContext @ 0000019e3dbfe400] Statistics: 0 seeks, 3 writeouts
video:341kB audio:0kB subtitle:0kB other streams:0kB global headers:0kB muxing overhead: 0.005720%
Input file #0 (C:/Users/Usuario/Desktop/DISEÑO/00_PORTFOLIO/PORTFOLIO WEB/HTML_PORTFOLIO/images/art/frame%04d.png):
  Input stream #0:0 (video): 28 packets read (7046080 bytes); 28 frames decoded; 
  Total: 28 packets (7046080 bytes) demuxed
Input file #1 (C:/Users/Usuario/Desktop/DISEÑO/00_PORTFOLIO/PORTFOLIO WEB/HTML_PORTFOLIO/images/art/palette.png):
  Input stream #1:0 (video): 1 packets read (1007 bytes); 1 frames decoded; 
  Total: 1 packets (1007 bytes) demuxed
Output file #0 (C:/Users/Usuario/Desktop/DISEÑO/00_PORTFOLIO/PORTFOLIO WEB/HTML_PORTFOLIO/images/art\uuuuuuuuuuuuuuuu.gif):
  Output stream #0:0 (video): 28 frames encoded; 28 packets muxed (349648 bytes); 
  Total: 28 packets (349648 bytes) muxed
29 frames successfully decoded, 0 decoding errors
[AVIOContext @ 0000019e3dc06d00] Statistics: 0 seeks, 2 writeouts
[AVIOContext @ 0000019e3dc03840] Statistics: 1007 bytes read, 0 seeks
